<svg xmlns="http://www.w3.org/2000/svg" viewBox="0 0 1280 1000"><defs><style>.cls-1{fill:#8bb32f;}.cls-2{fill:#27aae1;}.cls-3{fill:#1c75bc;}.cls-4{fill:#e3e3e3;}.cls-5{fill:#f6f6f6;}.cls-6{fill:#62bd4f;}.cls-7{fill:#ededed;}.cls-8{fill:#9fcfd6;}.cls-9{fill:#b4e5e8;}.cls-10{fill:#4eafbd;}.cls-11{fill:#229bad;}</style></defs><title>drainase-02</title><g id="Layer_2" data-name="Layer 2"><path class="cls-1" d="M1300.77-300.23a43.89,43.89,0,0,1-43.89-43.9v-288.1a43.87,43.87,0,0,1,43.89-43.88h153.48v-73.81H1240.53a61.11,61.11,0,0,0-61.12,61.11v401.27a61.11,61.11,0,0,0,61.12,61.08h124.76l36,119.31,53,175.52v-368.6Z"/><path class="cls-2" d="M493.43,550.87a41.85,41.85,0,0,1-41.88-41.93V233.81a41.86,41.86,0,0,1,41.88-41.92H640V121.42H435.92a58.39,58.39,0,0,0-58.42,58.36V563a58.39,58.39,0,0,0,58.42,58.38H555.07L589.45,735.3,640,902.93V550.87Z"/><path class="cls-3" d="M844.12,121.42H640v70.47H786.61a41.86,41.86,0,0,1,41.91,41.92V508.94a41.85,41.85,0,0,1-41.91,41.93H640V902.93l50.6-167.63L725,621.36H844.12A58.36,58.36,0,0,0,902.5,563V179.78A58.35,58.35,0,0,0,844.12,121.42Z"/><path class="cls-4" d="M786.61,550.87a41.85,41.85,0,0,0,41.91-41.93V233.81a41.86,41.86,0,0,0-41.91-41.92H640v359Z"/><path class="cls-5" d="M451.55,233.81V508.94a41.85,41.85,0,0,0,41.88,41.93H640v-359H493.43A41.86,41.86,0,0,0,451.55,233.81Z"/><polygon class="cls-6" points="699.63 257.26 640.02 281.62 640.02 281.56 580.4 257.2 520.81 281.56 520.81 475.63 580.4 456.24 640.02 475.63 699.63 456.28 759.22 475.7 759.22 281.62 699.63 257.26"/><path class="cls-7" d="M764.57,268.54,705,244.2,699.63,242l-5.34,2.19-54.2,22.12-54.34-22.18L580.41,242l-5.34,2.18-59.61,24.33-8.78,3.6v223l18.49-6,55.24-18,55.24,18,4.35,1.4,4.37-1.4,55.24-17.93,55.25,18,18.5,6v-223ZM759.22,475.7l-59.59-19.42L640,475.63l-59.61-19.39-59.6,19.39V281.55l59.6-24.35L640,281.55v.06l59.61-24.35,59.59,24.35Z"/><polygon class="cls-8" points="640.02 475.59 580.4 456.2 580.4 257.18 640.02 281.53 640.02 475.59"/><polygon class="cls-9" points="520.81 475.59 580.4 456.2 580.4 257.18 520.81 281.53 520.81 475.59"/><polygon class="cls-8" points="699.63 257.24 699.63 456.25 759.22 475.66 759.22 281.58 699.63 257.24"/><polygon class="cls-9" points="640.02 475.66 699.63 456.25 699.63 257.24 640.02 281.58 640.02 475.66"/><path class="cls-10" d="M550.61,465.93s-9.61-15,0-17.38,13.21-22.67,29.8-23v30.65Z"/><path class="cls-11" d="M620,425.59c-7.65,5-20.11,5.69-31.51,2a17.68,17.68,0,0,0-8-2v30.65l29.81,9.69,0,0L640,475.66V415S627.58,420.6,620,425.59Z"/><path class="cls-10" d="M691.59,427.6c-11.4,3.68-23.86,3-31.5-2S640,415,640,415v60.65l29.76-9.77s0,0,0,0l29.82-9.69V425.59A17.72,17.72,0,0,0,691.59,427.6Z"/><path class="cls-10" d="M699.63,426.19s32.41,15.1,37.9,42.55l-37.9-12.5Z"/><path class="cls-1" d="M520.81,320.86s23.72,1.16,29.8,11.76a41.26,41.26,0,0,0,15.49,15.3s6.47,21.65,0,29.65S542,392,537.86,402.63s-17.05,17.5-17.05,17.5Z"/><polygon class="cls-5" points="699.63 343.99 639.66 390.29 580.24 389.4 520.81 430.3 520.81 447.47 580.24 401.28 640.02 400.57 701.85 358.11 759.22 366.46 759.22 353.41 699.63 343.99"/><path class="cls-1" d="M699.63,257.24,640,230.93V377.57S672.8,344.38,673.59,335s21.07-20,26-23.15,32.41,2,37.9,0,21.69-13.33,21.69-13.33V281.58Z"/></g></svg>