<svg xmlns="http://www.w3.org/2000/svg" viewBox="0 0 1280 1000"><defs><style>.cls-1,.cls-5{fill:#fbb040;}.cls-2,.cls-6{fill:#f28a13;}.cls-3{fill:#e3e3e3;}.cls-4{fill:#f6f6f6;}.cls-5,.cls-6{fill-rule:evenodd;}</style></defs><title>faskes</title><g id="Layer_2" data-name="Layer 2"><path class="cls-1" d="M501.65,550.3a39.54,39.54,0,0,1-39.57-39.59V250.92a39.57,39.57,0,0,1,39.57-39.62h138.4V144.79H447.32a55.15,55.15,0,0,0-55.15,55.12V561.72a55.15,55.15,0,0,0,55.15,55.14h112.5l32.46,107.58,47.77,158.27V550.3Z"/><path class="cls-2" d="M832.76,144.79H640.05V211.3H778.43A39.55,39.55,0,0,1,818,250.92V510.71a39.52,39.52,0,0,1-39.57,39.59H640.05V882.71l47.76-158.27,32.48-107.58H832.76a55.11,55.11,0,0,0,55.12-55.14V199.91A55.11,55.11,0,0,0,832.76,144.79Z"/><path class="cls-3" d="M778.43,550.3A39.52,39.52,0,0,0,818,510.71V250.92a39.55,39.55,0,0,0-39.57-39.62H640.05v339Z"/><path class="cls-4" d="M462.08,250.92V510.71a39.54,39.54,0,0,0,39.57,39.59h138.4v-339H501.65A39.57,39.57,0,0,0,462.08,250.92Z"/><path class="cls-5" d="M639.82,475.7H619.14a6.7,6.7,0,0,1-6.91-6.43v-23c0-3.19-3.67-2.75-3.67-2.75H584.21a6.69,6.69,0,0,1-6.91-6.43V398.48a6.68,6.68,0,0,1,6.91-6.43H609a2.87,2.87,0,0,0,3.21-2.76V365.84c0-3.21,3.24-6,6.91-6h20.68V347H510.19s-3.22,0-3.22-1.84V333.66a1.47,1.47,0,0,1,1.38-1.37H639.82V273.14a11.85,11.85,0,0,1,.18-2H565.82V313H520.31c-7.35,0-13.79,6-13.79,12.88V471.56c0,6.89,6.44,12.88,13.79,12.88H639.82Z"/><path class="cls-6" d="M759.51,313h-50.1V271.16H640v61.13H771.93c.46,0,.91.45,1.38.45v-6.89C773.31,319,766.88,313,759.51,313Z"/><path class="cls-6" d="M770.09,347H640v12.89h20.68c4.15,0,6.91,2.76,6.91,6v23s.45,3.23,3.21,3.23h24.82a6.68,6.68,0,0,1,6.9,6.43v38.61a6.69,6.69,0,0,1-6.9,6.43H671.26s-3.67.47-3.67,3.23v22.52c0,3.67-2.76,6.43-6.91,6.43H640v8.74H759.51c7.37,0,13.8-6,13.8-12.88V345.62C772.84,346.54,771.93,347,770.09,347Z"/></g></svg>