<svg xmlns="http://www.w3.org/2000/svg" xmlns:xlink="http://www.w3.org/1999/xlink" viewBox="0 0 1280 1000"><defs><style>.cls-1{fill:none;}.cls-2{fill:#8bb32f;}.cls-3{fill:#688623;}.cls-4{fill:#e3e3e3;}.cls-5{fill:#f6f6f6;}.cls-6{clip-path:url(#clip-path);}</style><clipPath id="clip-path"><rect class="cls-1" x="649.5" y="242.81" width="165.87" height="204.22" rx="3.66"/></clipPath></defs><title>jembatan-02</title><g id="Layer_2" data-name="Layer 2"><path class="cls-2" d="M491.31,552.72a43.88,43.88,0,0,1-43.88-43.9V220.72a43.86,43.86,0,0,1,43.88-43.88H644.8V103H431.08A61.11,61.11,0,0,0,370,164.14V565.41a61.11,61.11,0,0,0,61.12,61.08H555.84l36,119.31,53,175.52V552.72Z"/><path class="cls-3" d="M858.5,103H644.8v73.81H798.25a43.84,43.84,0,0,1,43.89,43.88v288.1a43.86,43.86,0,0,1-43.89,43.9H644.8v368.6l53-175.52,36-119.31H858.5a61.11,61.11,0,0,0,61.13-61.08V164.14A61.11,61.11,0,0,0,858.5,103Z"/><path class="cls-4" d="M798.25,552.72a43.86,43.86,0,0,0,43.89-43.9V220.72a43.84,43.84,0,0,0-43.89-43.88H644.8V552.72Z"/><path class="cls-5" d="M447.43,220.72v288.1a43.88,43.88,0,0,0,43.88,43.9H644.8V176.84H491.31A43.86,43.86,0,0,0,447.43,220.72Z"/><g class="cls-6"><path class="cls-3" d="M795.49,405.13H783.81V392.79h13V371.12H778v0L732.2,297.38H556.31L515.89,371l0,.09H495.93v21.67H510v12.34H498.39a7.25,7.25,0,0,0-7.25,7.25v15.26a7.24,7.24,0,0,0,7.25,7.25h43.49a7.25,7.25,0,0,0,7.25-7.25V412.38a7.26,7.26,0,0,0-7.25-7.25h-9.39V392.79H694.14l.24.43v-.43h67v12.34H752a7.25,7.25,0,0,0-7.25,7.25v15.26a7.24,7.24,0,0,0,7.25,7.25h43.49a7.25,7.25,0,0,0,7.25-7.25V412.38A7.26,7.26,0,0,0,795.49,405.13ZM692.35,310.68h28.09l-28.09,53.15Zm-4.83,0v53.18L653,310.68Zm-80.64,0h36.35l-36.35,53.45Zm-4.83,0v55.26l-34.94-55.26Zm-45.58,60.44H531l30.65-55.82v55.82Zm36.93,0H566.48v-52.4l33.12,52.4Zm49.88,0H608l37.6-55.3v55.3Zm35.35,0H650.42V315.61l36,55.51Zm24.7,0H694l28.21-53.38v53.38Zm56.84,0H727v-56.9l35.37,56.9Z"/></g><path class="cls-2" d="M649.5,392.79V297.38H556.71L516.28,371a.36.36,0,0,0,0,.09H496.33v21.67h14.06v12.34H498.78a7.26,7.26,0,0,0-7.25,7.25v15.26a7.25,7.25,0,0,0,7.25,7.25h43.49a7.24,7.24,0,0,0,7.25-7.25V412.38a7.25,7.25,0,0,0-7.25-7.25h-9.39V392.79ZM646,371.12h-37.6l37.6-55.3Zm-38.69-60.44h36.35l-36.35,53.45Zm-4.84,0v55.26L567.5,310.68Zm-35.57,8L600,371.12H566.87Zm-34.64,52.4h-.83L562,315.3v55.82H532.23Z"/></g></svg>