<svg xmlns="http://www.w3.org/2000/svg" viewBox="0 0 1280 1000"><defs><style>.cls-1{fill:#ccc;}.cls-2{fill:#e1e1e1;}.cls-3{fill:#f6f6f6;}.cls-4{fill:#8bb32f;}.cls-5{fill:#27aae1;}.cls-6{fill:#f16a4d;}.cls-7{fill:#e9401b;}</style></defs><title>kondisi-jalan</title><g id="Layer_2" data-name="Layer 2"><path class="cls-1" d="M830.06,870.54c0,7.9-6.69,14.34-14.92,14.34H438.34c-8.24,0-14.91-6.44-14.91-14.34V526.1c0-7.91,6.67-14.31,14.91-14.31h376.8c8.23,0,14.92,6.4,14.92,14.31Z"/><path class="cls-2" d="M830.06,833c0,7.88-6.69,14.28-14.92,14.28H438.34c-8.24,0-14.91-6.4-14.91-14.28V489.59c0-7.88,6.67-14.29,14.91-14.29h376.8c8.23,0,14.92,6.41,14.92,14.29Z"/><rect class="cls-3" x="423.43" y="636.29" width="406.63" height="44.43"/><path class="cls-3" d="M527.32,717l-72.21-.05-31.68,0V731.5l103.89.22c17.73,0,32.14,16.22,32.11,36.17l-.2,79.35H572.5l.06-79.35C572.6,739.83,552.3,717,527.32,717Z"/><rect class="cls-3" x="596.85" y="475.3" width="41.25" height="371.95"/><rect class="cls-3" x="654.03" y="490.72" width="44.76" height="110.97"/><rect class="cls-3" x="726.15" y="568.81" width="94.91" height="39.34"/><path class="cls-3" d="M667.82,658.49a50.35,50.35,0,1,1-50.34-50.34A50.33,50.33,0,0,1,667.82,658.49Z"/><rect class="cls-3" x="479.91" y="475.3" width="21.39" height="256.64"/><path class="cls-4" d="M423.43,752.88s67.22-5,74.59,17.32,19.42,26.11,28.76,34.49,15.84,42.55,15.84,42.55H438.34s-10.68.65-15-11.17Z"/><path class="cls-5" d="M805.49,764.28c0,33.86-37.84,58.34-73.32,58.34s-73.33-24.48-73.33-58.34,40.49-45.19,73.33-58.66C771.22,689.63,805.49,730.43,805.49,764.28Z"/><rect class="cls-3" x="423.43" y="531.58" width="153.69" height="20.82"/><rect class="cls-3" x="676.37" y="520.4" width="153.69" height="20.83"/><path class="cls-1" d="M638.1,657.59c0,9.31-9.25,16.82-20.62,16.82s-20.63-7.51-20.63-16.82,9.21-16.81,20.63-16.81S638.1,648.3,638.1,657.59Z"/><path class="cls-6" d="M479.17,270.31A138.34,138.34,0,0,1,617.47,132V72.73c-109.14,0-197.56,88.46-197.56,197.58,0,91.62,62.37,168.64,147,191l.28,1.05,50.31,198.9V408.61A138.31,138.31,0,0,1,479.17,270.31Z"/><path class="cls-7" d="M617.47,72.73V132a138.31,138.31,0,0,1,0,276.62V661.26l50.32-198.9.28-1.05c84.58-22.36,147-99.38,147-191C815,161.19,726.59,72.73,617.47,72.73Z"/><path class="cls-7" d="M539,270.37a78.48,78.48,0,0,1,78.5-78.48V132a138.31,138.31,0,0,0,0,276.62V348.85A78.48,78.48,0,0,1,539,270.37Z"/><path class="cls-6" d="M617.47,132v59.9a78.48,78.48,0,0,1,0,157v59.76a138.31,138.31,0,0,0,0-276.62Z"/></g></svg>