<svg xmlns="http://www.w3.org/2000/svg" viewBox="0 0 1280 1000"><defs><style>.cls-1{fill:#e26954;}.cls-2{fill:#b74e46;}.cls-3{fill:#e3e3e3;}.cls-4{fill:#f6f6f6;}.cls-5{fill:#665c7a;}.cls-6{fill:#f74f17;}</style></defs><title>sekolah</title><g id="Layer_2" data-name="Layer 2"><path class="cls-1" d="M488.28,548.22a43.36,43.36,0,0,1-43.39-43.41V220a43.39,43.39,0,0,1,43.39-43.42H640v-72.9H428.73A60.41,60.41,0,0,0,368.28,164V560.73a60.45,60.45,0,0,0,60.45,60.46H552.05l35.63,117.9L640,912.62V548.22Z"/><path class="cls-2" d="M851.29,103.66H640v72.9H791.74A43.39,43.39,0,0,1,835.13,220V504.81a43.36,43.36,0,0,1-43.39,43.41H640v364.4l52.34-173.53L728,621.19H851.29a60.45,60.45,0,0,0,60.43-60.46V164A60.4,60.4,0,0,0,851.29,103.66Z"/><path class="cls-3" d="M791.74,548.22a43.36,43.36,0,0,0,43.39-43.41V220a43.39,43.39,0,0,0-43.39-43.42H640V548.22Z"/><path class="cls-4" d="M444.89,220V504.81a43.36,43.36,0,0,0,43.39,43.41H640V176.56H488.28A43.39,43.39,0,0,0,444.89,220Z"/><path class="cls-3" d="M738,266.43a104.15,104.15,0,0,0,6.5-25.12H640v25.12Z"/><path class="cls-4" d="M542,266.43h98V241.31H535.53A105.57,105.57,0,0,0,542,266.43Z"/><rect class="cls-5" x="637.77" y="220.33" width="3.73" height="75.57"/><rect class="cls-6" x="641.49" y="222.93" width="36.85" height="23.65"/><path class="cls-2" d="M733.81,381.74l-28.52-31.46-25.81-28.5-39.92-44.07v41.81l.18,0a17.28,17.28,0,1,1,.13,34.55c-.09,0-.19-.05-.31-.05v57.5c.22,0,.36-.08.57-.08a26.9,26.9,0,0,1,27,26.75l.26,63.11v.28l50.16-.22-.53-119.52Z"/><path class="cls-1" d="M622.53,336.84a17.27,17.27,0,0,1,17-17.32V277.71L546.25,382.5l16.71,0L563.48,502l50.12-.24v-.23l-.24-63.13a26.8,26.8,0,0,1,26.19-26.91V354A17.24,17.24,0,0,1,622.53,336.84Z"/></g></svg>